<svg width="80" height="80" viewBox="0 0 80 80" fill="none" xmlns="http://www.w3.org/2000/svg">
<path d="M11.7587 71.3269L5.47498 0.844971H74.525L68.235 71.3162L39.9581 79.1556L11.7587 71.3269Z" fill="#1572B6"/>
<path d="M40.0006 73.1638L62.85 66.8288L68.2256 6.60754H40.0006V73.1638Z" fill="#33A9DC"/>
<path d="M40.0006 32.1431H51.4394L52.2294 23.2912H40.0006V14.6469H61.6769L61.4694 16.9662L59.3444 40.7875H40.0006V32.1431Z" fill="white"/>
<path d="M40.0518 54.5931L40.0137 54.6043L30.3868 52.005L29.7712 45.1106H21.095L22.3056 58.6837L40.0125 63.5981L40.0518 63.5868V54.5931Z" fill="#EBEBEB"/>
<path d="M50.7043 40.4219L49.6631 51.9981L40.0219 54.6006V63.5944L57.7431 58.6831L57.8731 57.2225L59.3768 40.4219H50.7043Z" fill="white"/>
<path d="M40.03 14.6469V23.2912H19.15L18.9768 21.3487L18.5831 16.9662L18.3762 14.6469H40.03ZM40.0006 32.1444V40.7887H30.495L30.3218 38.8462L29.9275 34.4637L29.7212 32.1444H40.0006Z" fill="#EBEBEB"/>
</svg>
