<svg width="49" height="48" viewBox="0 0 49 48" fill="none" xmlns="http://www.w3.org/2000/svg">
<g clip-path="url(#clip0_39_1125)">
<path d="M24.5961 1C18.8973 1.00024 13.3845 3.02826 9.04411 6.72119C4.70375 10.4141 1.81905 15.531 0.906174 21.1562C-0.00670194 26.7814 1.11182 32.548 4.06159 37.424C7.01137 42.2999 11.5999 45.9672 17.0062 47.7696C18.2062 47.9797 18.6562 47.2597 18.6562 46.6296C18.6562 46.0597 18.6262 44.1697 18.6262 42.1597C12.5962 43.2697 11.0362 40.6898 10.5562 39.3398C10.0236 38.0268 9.17926 36.8633 8.0962 35.9498C7.25621 35.4998 6.05622 34.3898 8.06618 34.3598C8.83366 34.4431 9.56976 34.7102 10.2121 35.1384C10.8544 35.5666 11.3841 36.1433 11.7562 36.8197C12.0844 37.4094 12.5258 37.9285 13.055 38.3473C13.5842 38.7661 14.1909 39.0764 14.8402 39.2603C15.4896 39.4442 16.1688 39.4982 16.8391 39.4192C17.5093 39.3401 18.1573 39.1296 18.7461 38.7997C18.85 37.5796 19.3937 36.4388 20.2761 35.5898C14.9362 34.9898 9.3562 32.9197 9.3562 23.7399C9.32247 21.3547 10.2026 19.0469 11.8162 17.29C11.0825 15.2169 11.1683 12.9419 12.0562 10.93C12.0562 10.93 14.0661 10.3 18.6561 13.39C22.5832 12.3099 26.729 12.3099 30.656 13.39C35.246 10.27 37.256 10.93 37.256 10.93C38.144 12.9418 38.2298 15.2169 37.496 17.29C39.1144 19.0439 39.9953 21.3537 39.956 23.7399C39.956 32.9498 34.346 34.9898 29.0061 35.5898C29.5788 36.1703 30.0199 36.8673 30.2995 37.6334C30.579 38.3995 30.6904 39.2168 30.626 40.0298C30.626 43.2398 30.596 45.8197 30.596 46.6297C30.596 47.2598 31.046 48.0097 32.246 47.7697C37.6428 45.9526 42.2181 42.2767 45.1553 37.3983C48.0925 32.5198 49.2004 26.7562 48.2812 21.1364C47.362 15.5166 44.4756 10.4064 40.1371 6.71799C35.7986 3.02955 30.2905 1.00296 24.5961 1V1Z" fill="black"/>
</g>
<defs>
<clipPath id="clip0_39_1125">
<rect width="48" height="48" fill="white" transform="translate(0.596191)"/>
</clipPath>
</defs>
</svg>
