<svg width="49" height="48" viewBox="0 0 49 48" fill="none" xmlns="http://www.w3.org/2000/svg">
<g clip-path="url(#clip0_39_1113)">
<path d="M33.5962 0H15.5962C11.6179 0 7.80264 1.58035 4.98959 4.3934C2.17654 7.20644 0.596191 11.0218 0.596191 15L0.596191 33C0.596191 36.9782 2.17654 40.7936 4.98959 43.6066C7.80264 46.4196 11.6179 48 15.5962 48H33.5962C37.5744 48 41.3897 46.4196 44.2028 43.6066C47.0158 40.7936 48.5962 36.9782 48.5962 33V15C48.5962 11.0218 47.0158 7.20644 44.2028 4.3934C41.3897 1.58035 37.5744 0 33.5962 0V0ZM44.0962 33C44.0962 38.79 39.3862 43.5 33.5962 43.5H15.5962C9.80619 43.5 5.09619 38.79 5.09619 33V15C5.09619 9.21 9.80619 4.5 15.5962 4.5H33.5962C39.3862 4.5 44.0962 9.21 44.0962 15V33Z" fill="url(#paint0_linear_39_1113)"/>
<path d="M24.5962 12C21.4136 12 18.3613 13.2643 16.1109 15.5147C13.8605 17.7652 12.5962 20.8174 12.5962 24C12.5962 27.1826 13.8605 30.2348 16.1109 32.4853C18.3613 34.7357 21.4136 36 24.5962 36C27.7788 36 30.831 34.7357 33.0815 32.4853C35.3319 30.2348 36.5962 27.1826 36.5962 24C36.5962 20.8174 35.3319 17.7652 33.0815 15.5147C30.831 13.2643 27.7788 12 24.5962 12ZM24.5962 31.5C22.6078 31.4976 20.7015 30.7067 19.2955 29.3007C17.8895 27.8947 17.0986 25.9884 17.0962 24C17.0962 19.863 20.4622 16.5 24.5962 16.5C28.7302 16.5 32.0962 19.863 32.0962 24C32.0962 28.134 28.7302 31.5 24.5962 31.5Z" fill="url(#paint1_linear_39_1113)"/>
<path d="M37.4962 12.699C38.3793 12.699 39.0952 11.9831 39.0952 11.1C39.0952 10.2169 38.3793 9.50098 37.4962 9.50098C36.6131 9.50098 35.8972 10.2169 35.8972 11.1C35.8972 11.9831 36.6131 12.699 37.4962 12.699Z" fill="url(#paint2_linear_39_1113)"/>
</g>
<defs>
<linearGradient id="paint0_linear_39_1113" x1="4.98819" y1="43.608" x2="44.2042" y2="4.392" gradientUnits="userSpaceOnUse">
<stop stop-color="#FFC107"/>
<stop offset="0.507" stop-color="#F44336"/>
<stop offset="0.99" stop-color="#9C27B0"/>
</linearGradient>
<linearGradient id="paint1_linear_39_1113" x1="16.1122" y1="32.484" x2="33.0802" y2="15.516" gradientUnits="userSpaceOnUse">
<stop stop-color="#FFC107"/>
<stop offset="0.507" stop-color="#F44336"/>
<stop offset="0.99" stop-color="#9C27B0"/>
</linearGradient>
<linearGradient id="paint2_linear_39_1113" x1="36.3652" y1="12.231" x2="38.6272" y2="9.96898" gradientUnits="userSpaceOnUse">
<stop stop-color="#FFC107"/>
<stop offset="0.507" stop-color="#F44336"/>
<stop offset="0.99" stop-color="#9C27B0"/>
</linearGradient>
<clipPath id="clip0_39_1113">
<rect width="48" height="48" fill="white" transform="translate(0.596191)"/>
</clipPath>
</defs>
</svg>
