<svg width="80" height="80" viewBox="0 0 80 80" fill="none" xmlns="http://www.w3.org/2000/svg">
<path d="M32.8631 42.3856C32.8631 42.3856 30.8106 43.58 34.3262 43.9837C38.5849 44.47 40.7618 44.4 45.4543 43.5131C45.4543 43.5131 46.6912 44.2862 48.4137 44.9562C37.8912 49.4643 24.5987 44.695 32.8631 42.3856ZM31.5762 36.5012C31.5762 36.5012 29.2737 38.2068 32.7918 38.5706C37.3418 39.04 40.9337 39.0787 47.1537 37.8812C47.1537 37.8812 48.0118 38.7537 49.3637 39.2293C36.6437 42.9506 22.4756 39.5225 31.5762 36.5012Z" fill="#0074BD"/>
<path d="M42.4156 26.5193C45.0099 29.5056 41.7356 32.1906 41.7356 32.1906C41.7356 32.1906 48.3187 28.7924 45.2956 24.5356C42.4712 20.5674 40.3068 18.5968 52.0274 11.7993C52.0281 11.7993 33.6287 16.3931 42.4156 26.5193Z" fill="#EA2D2E"/>
<path d="M56.3325 46.7381C56.3325 46.7381 57.8525 47.9912 54.6588 48.96C48.5863 50.7994 29.3813 51.3544 24.0469 49.0331C22.1306 48.1987 25.7263 47.0412 26.8569 46.7981C28.0363 46.5425 28.71 46.5894 28.71 46.5894C26.5775 45.0875 14.9256 49.5387 22.7919 50.8156C44.2444 54.2925 61.8963 49.2494 56.3325 46.7381ZM33.8513 30.4044C33.8513 30.4044 24.0831 32.725 30.3925 33.5687C33.0575 33.925 38.3663 33.8431 43.315 33.4281C47.3582 33.0887 51.4156 32.3631 51.4156 32.3631C51.4156 32.3631 49.9913 32.9744 48.9594 33.6781C39.0381 36.2875 19.8763 35.0719 25.3932 32.4044C30.0575 30.1475 33.8513 30.4044 33.8513 30.4044ZM51.375 40.1981C61.4594 34.9594 56.7963 29.9244 53.5419 30.6025C52.7463 30.7687 52.3888 30.9125 52.3888 30.9125C52.3888 30.9125 52.6856 30.4475 53.25 30.2481C59.6888 27.9856 64.6394 36.9237 51.1738 40.4637C51.1738 40.4637 51.3281 40.3237 51.375 40.1981Z" fill="#0074BD"/>
<path d="M45.2962 0.820679C45.2962 0.820679 50.8806 6.40755 39.9987 14.9969C31.2724 21.8888 38.0087 25.8176 39.9949 30.3082C34.9012 25.7119 31.1649 21.6657 33.6712 17.9007C37.3518 12.3744 47.5487 9.6938 45.2962 0.820679Z" fill="#EA2D2E"/>
<path d="M34.8431 54.3995C44.5206 55.0182 59.3863 54.0551 59.7381 49.4757C59.7381 49.4757 59.0619 51.2113 51.7388 52.5888C43.4775 54.1438 33.2869 53.9632 27.2444 52.9657C27.2444 52.9657 28.4819 53.9907 34.8431 54.3995Z" fill="#0074BD"/>
<path d="M59.2912 62.6131H58.9962V62.4481H59.7899V62.6131H59.4962V63.4363H59.2906L59.2912 62.6131ZM60.8756 62.6544H60.8718L60.5793 63.4363H60.4443L60.1537 62.6544H60.1506V63.4363H59.9556V62.4481H60.2412L60.5106 63.1475L60.7806 62.4481H61.0643V63.4363H60.8756V62.6544ZM33.2568 71.8981C32.3443 72.6894 31.3793 73.1344 30.5124 73.1344C29.2787 73.1344 28.6093 72.3931 28.6093 71.2063C28.6093 69.9219 29.3256 68.9813 32.1956 68.9813H33.2562V71.8981H33.2568ZM35.7762 74.7406V65.9425C35.7762 63.6931 34.4931 62.2094 31.4031 62.2094C29.5993 62.2094 28.0181 62.6556 26.7324 63.2231L27.1024 64.7813C28.1149 64.4094 29.4243 64.0644 30.7093 64.0644C32.4906 64.0644 33.2562 64.7813 33.2562 66.265V67.3769H32.3662C28.0406 67.3769 26.0887 69.055 26.0887 71.5788C26.0887 73.7531 27.3749 74.9888 29.7968 74.9888C31.3531 74.9888 32.5162 74.3463 33.6018 73.4056L33.7993 74.7413H35.7762V74.7406ZM44.1837 74.7406H41.0418L37.2599 62.435H40.0043L42.3518 69.9969L42.8737 72.2688C44.0587 68.9825 44.8987 65.6463 45.3187 62.4356H47.9881C47.2737 66.4863 45.9862 70.9344 44.1837 74.7406ZM56.2387 71.8981C55.3231 72.6894 54.3574 73.1344 53.4937 73.1344C52.2587 73.1344 51.5899 72.3931 51.5899 71.2063C51.5899 69.9219 52.3081 68.9813 55.1749 68.9813H56.2381V71.8981H56.2387ZM58.7593 74.7406V65.9425C58.7593 63.6931 57.4724 62.2094 54.3849 62.2094C52.5793 62.2094 50.9987 62.6556 49.7131 63.2231L50.0837 64.7813C51.0962 64.4094 52.4074 64.0644 53.6924 64.0644C55.4712 64.0644 56.2387 64.7813 56.2387 66.265V67.3769H55.3487C51.0218 67.3769 49.0706 69.055 49.0706 71.5788C49.0706 73.7531 50.3556 74.9888 52.7768 74.9888C54.3337 74.9888 55.4949 74.3463 56.5837 73.4056L56.7824 74.7413H58.7593V74.7406ZM23.3262 76.8319C22.6093 77.8813 21.4481 78.7119 20.1781 79.18L18.9349 77.7144C19.9018 77.2181 20.7299 76.4175 21.1156 75.6713C21.4481 75.0069 21.5862 74.1525 21.5862 72.1081V58.0569H24.2637V71.915C24.2637 74.6494 24.0462 75.755 23.3262 76.8319Z" fill="#EA2D2E"/>
</svg>
