<svg width="49" height="48" viewBox="0 0 49 48" fill="none" xmlns="http://www.w3.org/2000/svg">
<g clip-path="url(#clip0_39_1119)">
<path d="M0.596191 15H11.3302V48H0.596191V15ZM40.5682 15.387C40.4542 15.351 40.3462 15.312 40.2262 15.279C40.0821 15.2464 39.937 15.2184 39.7912 15.195C39.1574 15.0654 38.5121 15.0001 37.8652 15C31.6072 15 27.6382 19.551 26.3302 21.309V15H15.5962V48H26.3302V30C26.3302 30 34.4422 18.702 37.8652 27V48H48.5962V25.731C48.5917 23.3614 47.8011 21.0603 46.3483 19.1883C44.8955 17.3164 42.8625 15.9794 40.5682 15.387Z" fill="#1976D2"/>
<path d="M5.84619 10.5C8.74569 10.5 11.0962 8.1495 11.0962 5.25C11.0962 2.35051 8.74569 0 5.84619 0C2.9467 0 0.596191 2.35051 0.596191 5.25C0.596191 8.1495 2.9467 10.5 5.84619 10.5Z" fill="#1976D2"/>
</g>
<defs>
<clipPath id="clip0_39_1119">
<rect width="48" height="48" fill="white" transform="translate(0.596191)"/>
</clipPath>
</defs>
</svg>
