<svg width="223" height="24" viewBox="0 0 223 24" fill="none" xmlns="http://www.w3.org/2000/svg">
<path d="M10.608 23.288C8.51733 23.288 6.704 22.9147 5.168 22.168C3.632 21.4213 2.43733 20.312 1.584 18.84C0.751998 17.368 0.335999 15.5653 0.335999 13.432C0.335999 10.8293 0.815999 8.53601 1.776 6.55201C2.75733 4.54668 4.144 2.97868 5.936 1.84801C7.74933 0.717342 9.92533 0.152008 12.464 0.152008C14.128 0.152008 15.6107 0.397341 16.912 0.888008C18.2133 1.37867 19.2693 2.04001 20.08 2.87201L18.672 5.49601C16.9013 3.87468 14.768 3.06401 12.272 3.06401C10.5013 3.06401 8.98666 3.50134 7.728 4.37601C6.46933 5.25068 5.49867 6.45601 4.816 7.99201C4.15467 9.52801 3.824 11.2987 3.824 13.304C3.824 15.736 4.44267 17.528 5.68 18.68C6.91733 19.832 8.69866 20.408 11.024 20.408C11.8347 20.408 12.6027 20.344 13.328 20.216C14.0747 20.088 14.7787 19.9173 15.44 19.704L16.464 13.56H10.96L11.344 11.064H19.632L17.936 21.88C16.976 22.328 15.8347 22.68 14.512 22.936C13.1893 23.1707 11.888 23.288 10.608 23.288Z" fill="url(#paint0_linear_35_47)"/>
<path d="M27.9662 23.288C26.3022 23.288 25.0222 22.7653 24.1262 21.72C23.2516 20.6533 22.9956 19 23.3582 16.76L24.8302 7.38401H28.0622L26.5902 16.76C26.1636 19.384 27.0062 20.696 29.1182 20.696C30.4836 20.696 31.5822 20.2587 32.4142 19.384C33.2463 18.488 33.7796 17.2933 34.0142 15.8L35.3262 7.38401H38.5583L36.0942 23H32.9582L33.3423 20.44C32.7876 21.3573 32.0409 22.0613 31.1022 22.552C30.1849 23.0427 29.1396 23.288 27.9662 23.288Z" fill="url(#paint1_linear_35_47)"/>
<path d="M46.793 23.288C45.513 23.288 44.3077 23.128 43.177 22.808C42.0677 22.4667 41.1397 21.9973 40.393 21.4L41.513 19.256C42.281 19.832 43.113 20.2587 44.009 20.536C44.9263 20.8133 45.865 20.952 46.825 20.952C47.913 20.952 48.7557 20.7493 49.353 20.344C49.9503 19.9173 50.249 19.3307 50.249 18.584C50.249 17.624 49.609 16.9947 48.329 16.696L45.353 16.024C44.2223 15.7893 43.337 15.3307 42.697 14.648C42.0783 13.944 41.769 13.0907 41.769 12.088C41.769 11.1493 42.0357 10.3067 42.569 9.56001C43.1023 8.81334 43.8597 8.21601 44.841 7.76801C45.8437 7.32001 47.049 7.09601 48.457 7.09601C49.5023 7.09601 50.5263 7.26668 51.529 7.60801C52.5317 7.92801 53.353 8.39734 53.993 9.01601L52.969 11.128C52.329 10.552 51.6037 10.136 50.793 9.88001C50.0037 9.60268 49.1717 9.46401 48.297 9.46401C47.1877 9.46401 46.313 9.68801 45.673 10.136C45.0543 10.584 44.745 11.1813 44.745 11.928C44.745 12.376 44.8837 12.7707 45.161 13.112C45.4383 13.432 45.8863 13.656 46.505 13.784L49.481 14.456C50.6757 14.7333 51.593 15.2027 52.233 15.864C52.8943 16.504 53.225 17.336 53.225 18.36C53.225 19.9173 52.6277 21.1333 51.433 22.008C50.2597 22.8613 48.713 23.288 46.793 23.288Z" fill="url(#paint2_linear_35_47)"/>
<path d="M62.8727 23.288C60.9314 23.288 59.5127 22.7547 58.6167 21.688C57.7421 20.6213 57.4434 19.2027 57.7207 17.432L58.9367 9.88001H55.8967L56.2807 7.38401H59.3207L60.0567 2.68001H63.2887L62.5527 7.38401H67.3848L67.0007 9.88001H62.1687L60.9847 17.176C60.7927 18.392 60.9207 19.2667 61.3687 19.8C61.8381 20.3333 62.5634 20.6 63.5448 20.6C63.9074 20.6 64.2381 20.568 64.5368 20.504C64.8354 20.44 65.1234 20.3547 65.4007 20.248L65.6567 22.712C65.3367 22.8827 64.9101 23.0213 64.3767 23.128C63.8647 23.2347 63.3634 23.288 62.8727 23.288Z" fill="url(#paint3_linear_35_47)"/>
<path d="M72.9282 23.288C72.0109 23.288 71.1576 23.0853 70.3682 22.68C69.5789 22.2533 68.9496 21.688 68.4802 20.984C68.0109 20.2587 67.7762 19.448 67.7762 18.552C67.7762 16.9093 68.4802 15.7147 69.8882 14.968C71.2962 14.2213 73.5256 13.848 76.5762 13.848H78.7842L78.9122 13.08C79.1042 11.9493 78.9443 11.0853 78.4323 10.488C77.9202 9.89068 77.0349 9.59201 75.7763 9.59201C73.8776 9.59201 72.0963 10.136 70.4323 11.224L69.6322 8.92001C70.4216 8.36534 71.4029 7.92801 72.5762 7.60801C73.7709 7.26668 74.9656 7.09601 76.1602 7.09601C78.4856 7.09601 80.0963 7.73601 80.9922 9.01601C81.9096 10.2747 82.2083 11.9067 81.8883 13.912L80.4482 23H77.4082L77.7602 20.6C77.2269 21.5387 76.5229 22.2213 75.6482 22.648C74.7949 23.0747 73.8882 23.288 72.9282 23.288ZM73.8562 20.984C74.9442 20.984 75.9043 20.632 76.7363 19.928C77.5896 19.2027 78.1123 18.2 78.3043 16.92L78.4642 15.832H76.8643C74.6456 15.832 73.1096 16.0133 72.2562 16.376C71.4029 16.7387 70.9762 17.4 70.9762 18.36C70.9762 19.2133 71.2536 19.864 71.8083 20.312C72.3842 20.76 73.0669 20.984 73.8562 20.984Z" fill="url(#paint4_linear_35_47)"/>
<path d="M89.2875 23L85.0635 7.38401H88.3915L91.2715 19.256L98.0555 7.38401H101.479L92.2315 23H89.2875Z" fill="url(#paint5_linear_35_47)"/>
<path d="M108.383 23.288C106.186 23.288 104.458 22.6693 103.199 21.432C101.962 20.1733 101.343 18.4773 101.343 16.344C101.343 14.5307 101.706 12.9307 102.431 11.544C103.157 10.1573 104.149 9.06934 105.407 8.28001C106.687 7.49068 108.138 7.09601 109.759 7.09601C111.957 7.09601 113.674 7.72534 114.911 8.98401C116.17 10.2213 116.799 11.9067 116.799 14.04C116.799 15.8533 116.437 17.464 115.711 18.872C114.986 20.2587 113.983 21.3467 112.703 22.136C111.445 22.904 110.005 23.288 108.383 23.288ZM108.447 20.792C109.535 20.792 110.453 20.4827 111.199 19.864C111.967 19.2453 112.543 18.424 112.927 17.4C113.333 16.3547 113.535 15.2027 113.535 13.944C113.535 12.536 113.194 11.4693 112.511 10.744C111.829 9.99734 110.89 9.62401 109.695 9.62401C108.607 9.62401 107.679 9.93334 106.911 10.552C106.165 11.1493 105.589 11.9707 105.183 13.016C104.799 14.04 104.607 15.192 104.607 16.472C104.607 17.88 104.949 18.9573 105.631 19.704C106.314 20.4293 107.253 20.792 108.447 20.792Z" fill="url(#paint6_linear_35_47)"/>
<path d="M125.635 23L139.299 0.440008H142.051L148.515 23H145.315L143.875 17.496H132.419L129.187 23H125.635ZM140.259 4.12001L133.987 14.808H143.139L140.323 4.12001H140.259Z" fill="url(#paint7_linear_35_47)"/>
<path d="M154.819 23L150.595 7.38401H153.923L156.803 19.256L163.587 7.38401H167.011L157.763 23H154.819Z" fill="url(#paint8_linear_35_47)"/>
<path d="M174.363 23.288C172.059 23.288 170.234 22.6693 168.891 21.432C167.547 20.1733 166.874 18.4667 166.874 16.312C166.874 14.6053 167.227 13.0587 167.93 11.672C168.634 10.264 169.616 9.15468 170.874 8.34401C172.154 7.51201 173.637 7.09601 175.322 7.09601C176.986 7.09601 178.298 7.48001 179.258 8.24801C180.24 8.99468 180.912 9.98668 181.275 11.224C181.637 12.44 181.723 13.752 181.531 15.16L181.434 15.928H169.947C169.84 17.4213 170.192 18.6053 171.003 19.48C171.835 20.3547 173.029 20.792 174.587 20.792C175.547 20.792 176.443 20.6533 177.275 20.376C178.128 20.0987 178.896 19.6613 179.579 19.064L180.475 21.24C179.749 21.9013 178.832 22.4133 177.723 22.776C176.635 23.1173 175.514 23.288 174.363 23.288ZM175.29 9.36801C174.288 9.36801 173.434 9.59201 172.73 10.04C172.048 10.4667 171.504 11.032 171.098 11.736C170.693 12.4187 170.405 13.1547 170.234 13.944H179.003C179.109 12.664 178.874 11.5867 178.298 10.712C177.722 9.81601 176.72 9.36801 175.29 9.36801Z" fill="url(#paint9_linear_35_47)"/>
<path d="M188.926 23.288C187.241 23.288 186.025 22.8187 185.278 21.88C184.553 20.92 184.329 19.5227 184.606 17.688L187.358 0.440008H190.59L187.838 17.656C187.689 18.7013 187.785 19.4587 188.126 19.928C188.467 20.3973 189.075 20.632 189.95 20.632C190.185 20.632 190.419 20.6213 190.654 20.6C190.91 20.5573 191.166 20.5147 191.422 20.472L190.942 23.032C190.643 23.1173 190.313 23.1813 189.95 23.224C189.587 23.2667 189.246 23.288 188.926 23.288Z" fill="url(#paint10_linear_35_47)"/>
<path d="M198.803 23.288C197.886 23.288 197.033 23.0853 196.243 22.68C195.454 22.2533 194.825 21.688 194.355 20.984C193.886 20.2587 193.651 19.448 193.651 18.552C193.651 16.9093 194.355 15.7147 195.763 14.968C197.171 14.2213 199.401 13.848 202.451 13.848H204.659L204.787 13.08C204.979 11.9493 204.819 11.0853 204.307 10.488C203.795 9.89068 202.91 9.59201 201.651 9.59201C199.753 9.59201 197.971 10.136 196.307 11.224L195.507 8.92001C196.297 8.36534 197.278 7.92801 198.451 7.60801C199.646 7.26668 200.841 7.09601 202.035 7.09601C204.361 7.09601 205.971 7.73601 206.867 9.01601C207.785 10.2747 208.083 11.9067 207.763 13.912L206.323 23H203.283L203.635 20.6C203.102 21.5387 202.398 22.2213 201.523 22.648C200.67 23.0747 199.763 23.288 198.803 23.288ZM199.731 20.984C200.819 20.984 201.779 20.632 202.611 19.928C203.465 19.2027 203.987 18.2 204.179 16.92L204.339 15.832H202.739C200.521 15.832 198.985 16.0133 198.131 16.376C197.278 16.7387 196.851 17.4 196.851 18.36C196.851 19.2133 197.129 19.864 197.683 20.312C198.259 20.76 198.942 20.984 199.731 20.984Z" fill="url(#paint11_linear_35_47)"/>
<path d="M210.743 23L213.239 7.38401H216.375L215.959 10.008C216.449 9.17601 217.111 8.50401 217.943 7.99201C218.796 7.48001 219.831 7.18134 221.047 7.09601L222.327 7.00001L222.295 9.75201L220.151 9.97601C218.572 10.104 217.431 10.5627 216.727 11.352C216.023 12.1413 215.564 13.2293 215.351 14.616L214.007 23H210.743Z" fill="url(#paint12_linear_35_47)"/>
<defs>
<linearGradient id="paint0_linear_35_47" x1="214.329" y1="-18.1053" x2="14.452" y2="45.3829" gradientUnits="userSpaceOnUse">
<stop stop-color="#FDE047"/>
<stop offset="0.515625" stop-color="#C026D3"/>
<stop offset="1" stop-color="#3B82F6"/>
</linearGradient>
<linearGradient id="paint1_linear_35_47" x1="214.329" y1="-18.1053" x2="14.452" y2="45.3829" gradientUnits="userSpaceOnUse">
<stop stop-color="#FDE047"/>
<stop offset="0.515625" stop-color="#C026D3"/>
<stop offset="1" stop-color="#3B82F6"/>
</linearGradient>
<linearGradient id="paint2_linear_35_47" x1="214.329" y1="-18.1053" x2="14.452" y2="45.3829" gradientUnits="userSpaceOnUse">
<stop stop-color="#FDE047"/>
<stop offset="0.515625" stop-color="#C026D3"/>
<stop offset="1" stop-color="#3B82F6"/>
</linearGradient>
<linearGradient id="paint3_linear_35_47" x1="214.329" y1="-18.1053" x2="14.452" y2="45.3829" gradientUnits="userSpaceOnUse">
<stop stop-color="#FDE047"/>
<stop offset="0.515625" stop-color="#C026D3"/>
<stop offset="1" stop-color="#3B82F6"/>
</linearGradient>
<linearGradient id="paint4_linear_35_47" x1="214.329" y1="-18.1053" x2="14.452" y2="45.3829" gradientUnits="userSpaceOnUse">
<stop stop-color="#FDE047"/>
<stop offset="0.515625" stop-color="#C026D3"/>
<stop offset="1" stop-color="#3B82F6"/>
</linearGradient>
<linearGradient id="paint5_linear_35_47" x1="214.329" y1="-18.1053" x2="14.452" y2="45.3829" gradientUnits="userSpaceOnUse">
<stop stop-color="#FDE047"/>
<stop offset="0.515625" stop-color="#C026D3"/>
<stop offset="1" stop-color="#3B82F6"/>
</linearGradient>
<linearGradient id="paint6_linear_35_47" x1="214.329" y1="-18.1053" x2="14.452" y2="45.3829" gradientUnits="userSpaceOnUse">
<stop stop-color="#FDE047"/>
<stop offset="0.515625" stop-color="#C026D3"/>
<stop offset="1" stop-color="#3B82F6"/>
</linearGradient>
<linearGradient id="paint7_linear_35_47" x1="214.329" y1="-18.1053" x2="14.452" y2="45.3829" gradientUnits="userSpaceOnUse">
<stop stop-color="#FDE047"/>
<stop offset="0.515625" stop-color="#C026D3"/>
<stop offset="1" stop-color="#3B82F6"/>
</linearGradient>
<linearGradient id="paint8_linear_35_47" x1="214.329" y1="-18.1053" x2="14.452" y2="45.3829" gradientUnits="userSpaceOnUse">
<stop stop-color="#FDE047"/>
<stop offset="0.515625" stop-color="#C026D3"/>
<stop offset="1" stop-color="#3B82F6"/>
</linearGradient>
<linearGradient id="paint9_linear_35_47" x1="214.329" y1="-18.1053" x2="14.452" y2="45.3829" gradientUnits="userSpaceOnUse">
<stop stop-color="#FDE047"/>
<stop offset="0.515625" stop-color="#C026D3"/>
<stop offset="1" stop-color="#3B82F6"/>
</linearGradient>
<linearGradient id="paint10_linear_35_47" x1="214.329" y1="-18.1053" x2="14.452" y2="45.3829" gradientUnits="userSpaceOnUse">
<stop stop-color="#FDE047"/>
<stop offset="0.515625" stop-color="#C026D3"/>
<stop offset="1" stop-color="#3B82F6"/>
</linearGradient>
<linearGradient id="paint11_linear_35_47" x1="214.329" y1="-18.1053" x2="14.452" y2="45.3829" gradientUnits="userSpaceOnUse">
<stop stop-color="#FDE047"/>
<stop offset="0.515625" stop-color="#C026D3"/>
<stop offset="1" stop-color="#3B82F6"/>
</linearGradient>
<linearGradient id="paint12_linear_35_47" x1="214.329" y1="-18.1053" x2="14.452" y2="45.3829" gradientUnits="userSpaceOnUse">
<stop stop-color="#FDE047"/>
<stop offset="0.515625" stop-color="#C026D3"/>
<stop offset="1" stop-color="#3B82F6"/>
</linearGradient>
</defs>
</svg>
