<svg width="49" height="48" viewBox="0 0 49 48" fill="none" xmlns="http://www.w3.org/2000/svg">
<g clip-path="url(#clip0_39_1129)">
<path d="M24.6022 0H24.5902C11.3572 0 0.596223 10.764 0.596223 24C0.588006 29.055 2.18817 33.9816 5.16522 38.067L2.17422 46.983L11.3992 44.034C15.3123 46.6301 19.9062 48.0101 24.6022 48C37.8352 48 48.5962 37.233 48.5962 24C48.5962 10.767 37.8352 0 24.6022 0Z" fill="#4CAF50"/>
<path d="M38.5672 33.8911C37.9882 35.5261 35.6902 36.8821 33.8572 37.2781C32.6032 37.5451 30.9652 37.7581 25.4512 35.4721C18.3982 32.5501 13.8562 25.383 13.5022 24.9181C13.1632 24.4531 10.6522 21.1231 10.6522 17.6791C10.6522 14.2351 12.4012 12.5581 13.1062 11.8381C13.6852 11.2471 14.6422 10.9771 15.5602 10.9771C15.8572 10.9771 16.1242 10.9921 16.3642 11.0041C17.0692 11.0341 17.4232 11.0761 17.8882 12.1891C18.4672 13.5841 19.8772 17.0281 20.0452 17.3821C20.2162 17.7361 20.3872 18.2161 20.1472 18.6811C19.9222 19.1611 19.7242 19.3741 19.3702 19.7821C19.0162 20.1901 18.6802 20.5021 18.3262 20.9401C18.0022 21.3211 17.6362 21.7291 18.0442 22.4341C18.4522 23.1241 19.8622 25.425 21.9382 27.2731C24.6172 29.6581 26.7892 30.4201 27.5662 30.7441C28.1452 30.9841 28.8352 30.9271 29.2582 30.4771C29.7952 29.8981 30.4582 28.9381 31.1332 27.9931C31.6132 27.3151 32.2192 27.2311 32.8552 27.4711C33.5032 27.6961 36.9322 29.3911 37.6372 29.7421C38.3422 30.0961 38.8072 30.2641 38.9782 30.5611C39.1462 30.8581 39.1462 32.2531 38.5672 33.8911Z" fill="#FAFAFA"/>
</g>
<defs>
<clipPath id="clip0_39_1129">
<rect width="48" height="48" fill="white" transform="translate(0.596191)"/>
</clipPath>
</defs>
</svg>
